<svg id="Group_65" data-name="Group 65" xmlns="http://www.w3.org/2000/svg" width="250" height="125" viewBox="0 0 250 125">
  <g id="logo_MarPanel" transform="translate(-66.205 -73.22)">
    <g id="Group_62" data-name="Group 62" transform="translate(143.018 119.107)">
      <path id="Path_262" data-name="Path 262" d="M291.694,148.2l-6.379,7.982a2.477,2.477,0,0,1-3.855,0l-6.413-7.982v7.47c0,.955-.58,1.433-1.774,1.433-1.16,0-1.774-.478-1.774-1.433V144c0-1.057.614-1.6,1.774-1.6a2.5,2.5,0,0,1,2.183,1.126l7.914,9.858,7.914-9.858a2.582,2.582,0,0,1,2.183-1.126c1.16,0,1.774.58,1.774,1.6v11.666c0,.955-.58,1.433-1.774,1.433-1.16,0-1.774-.478-1.774-1.433Z" transform="translate(-271.5 -142.366)"/>
      <path id="Path_263" data-name="Path 263" d="M363.309,153.455h-9.722l-1.706,2.558a1.916,1.916,0,0,1-1.706.989c-1.228,0-1.876-.478-1.876-1.4a2.1,2.1,0,0,1,.512-1.228l7.777-11.155a2.125,2.125,0,0,1,1.876-.921,2.047,2.047,0,0,1,1.808.921l7.777,11.155a2.1,2.1,0,0,1,.512,1.228c0,.921-.614,1.4-1.876,1.4a1.922,1.922,0,0,1-1.637-.989Zm-8.016-2.558H361.6l-3.172-4.742Z" transform="translate(-322.102 -142.3)"/>
      <path id="Path_264" data-name="Path 264" d="M418.148,151.876v3.957c0,.955-.58,1.433-1.774,1.433-1.16,0-1.774-.478-1.774-1.433V143.826c0-.716.478-1.126,1.4-1.126h9.858c4.5,0,6.788,1.262,6.788,3.855v1.33c0,2.49-2.286,3.718-6.788,3.718h-1.978l6.515,2.865c.716.307,1.057.682,1.057,1.33,0,.955-.648,1.467-1.876,1.467a2.407,2.407,0,0,1-1.33-.375Zm0-2.729h7.914q3.07,0,3.07-1.228v-1.194q0-1.228-3.07-1.228h-7.709a.181.181,0,0,0-.2.2Z" transform="translate(-365.786 -142.564)"/>
      <path id="Path_265" data-name="Path 265" d="M494.917,148.4c0,2.695-2.149,4.025-6.345,4.025h-9.006v4.23c0,.341-.239.546-.75.546-.478,0-.716-.2-.716-.546V143.112c0-.341.239-.512.682-.512h9.824c4.2,0,6.345,1.33,6.345,4.025V148.4Zm-15.35,2.968h9.04q4.81,0,4.81-2.968v-1.706q0-2.968-4.81-2.968h-8.869c-.1,0-.171.034-.171.136Z" transform="translate(-407.625 -142.498)"/>
      <path id="Path_266" data-name="Path 266" d="M542.341,152.872h-11.12l-2.422,3.855a.8.8,0,0,1-.682.341c-.409,0-.716-.239-.716-.546a.994.994,0,0,1,.068-.307l8.6-13.474a.857.857,0,0,1,.716-.341.89.89,0,0,1,.682.341l8.63,13.474a.55.55,0,0,1,.1.307c0,.307-.341.546-.716.546a.758.758,0,0,1-.682-.341ZM531.9,151.815h9.756l-4.912-7.743Z" transform="translate(-440.108 -142.366)"/>
      <path id="Path_267" data-name="Path 267" d="M595,142.673l13.781,12.383v-12.11c0-.341.273-.546.75-.546s.75.2.75.546v13.611c0,.341-.273.546-.785.546a1,1,0,0,1-.648-.273l-13.781-12.383v12.11c0,.341-.239.546-.75.546-.478,0-.716-.2-.716-.546V142.98c0-.375.239-.58.785-.58A1.545,1.545,0,0,1,595,142.673Z" transform="translate(-483.726 -142.366)"/>
      <path id="Path_268" data-name="Path 268" d="M661.67,157.263c-3.991,0-5.97-1.33-5.97-3.991v-6.481c0-2.661,1.978-3.991,5.867-3.991h3.206c.443,0,.716.2.716.546s-.239.546-.716.546H661.6c-2.934,0-4.4.955-4.4,2.9v2.661h13.1q.716,0,.716.512t-.716.512H657.2v2.8c0,1.944,1.467,2.9,4.5,2.9h8.63c.512,0,.75.2.75.546s-.239.546-.75.546H661.67Z" transform="translate(-524.643 -142.629)"/>
      <path id="Path_269" data-name="Path 269" d="M719.07,157c-3.991,0-5.97-1.364-5.97-4.093v-9.961c0-.341.239-.546.716-.546.512,0,.75.2.75.546v9.927c0,2.013,1.5,3.036,4.5,3.036h8.8c.478,0,.716.2.716.546s-.239.546-.716.546Z" transform="translate(-562.462 -142.366)"/>
    </g>
    <g id="Group_63" data-name="Group 63" transform="translate(76.5 107.1)">
      <path id="Path_270" data-name="Path 270" d="M112.9,148.213v3.1l17.84-12.485,14.566,12.178v-3.138L130.74,134.5Z" transform="translate(-100.483 -125.153)"/>
      <path id="Path_271" data-name="Path 271" d="M112.9,171.157v3.1l17.84-10.029,14.566,9.756V170.85L130.74,159.9Z" transform="translate(-100.483 -141.889)"/>
      <path id="Path_272" data-name="Path 272" d="M112.9,194.1v3.07l17.84-7.539L145.306,197v-3.138L130.74,185.3Z" transform="translate(-100.483 -158.625)"/>
      <path id="Path_273" data-name="Path 273" d="M112.9,217.011v3.1l17.84-5.083,14.566,4.946V216.84L130.74,210.7Z" transform="translate(-100.483 -175.36)"/>
      <path id="Path_274" data-name="Path 274" d="M105.12,107.1a28.62,28.62,0,1,0,28.62,28.62A28.636,28.636,0,0,0,105.12,107.1ZM116,160.11l-9.483-1.262-12.11,1.364a24.667,24.667,0,0,1-4.264-2.354l16.578-2.422,13.406,2.354A28.569,28.569,0,0,1,116,160.11Zm13.781-14.191q-.614,1.433-1.33,2.763l-7.129-3.206v3.138l5.9,2.081c-.58.853-1.228,1.671-1.876,2.456l-4.025-1.4v3.138l1.876.478c-.614.546-1.228,1.092-1.876,1.6v-2.081l-14.566-3.752-17.84,3.855v1.978c-.648-.512-1.262-1.023-1.876-1.569l1.876-.409v-3.1l-4.128,1.16a27.28,27.28,0,0,1-1.706-2.217l5.8-2.047v-3.1l-7.1,3c-.375-.682-.716-1.364-1.057-2.081l8.187-4.025v-3.1l-9.006,5.049a26.706,26.706,0,1,1,51.918-8.8,26.3,26.3,0,0,1-1.194,7.914l-9.278-4.5v3.138Z" transform="translate(-76.5 -107.1)"/>
    </g>
    <g id="Group_64" data-name="Group 64" transform="translate(143.291 142.815)">
      <path id="Path_275" data-name="Path 275" d="M280.18,214.661q0,1.842-2.968,1.842h-3.889v1.774q0,.409-.512.409t-.512-.409v-5.935c0-.2.136-.341.444-.341h4.5q2.968,0,2.968,1.842v.819Zm-6.856,1.057h3.923c1.3,0,1.91-.375,1.91-1.092v-.75c0-.716-.614-1.092-1.91-1.092h-3.855a.073.073,0,0,0-.068.068Z" transform="translate(-272.3 -211.932)"/>
      <path id="Path_276" data-name="Path 276" d="M309.152,218.718c-1.876,0-2.8-.614-2.8-1.876v-1.262l-.273.171a.545.545,0,0,1-.273.1.342.342,0,0,1-.2-.648l.75-.443v-2.251q0-.409.512-.409t.512.409v1.637l2.149-1.33a.55.55,0,0,1,.307-.1.379.379,0,0,1,.375.375.413.413,0,0,1-.2.307l-2.627,1.637v1.842c0,.75.58,1.126,1.808,1.126h3.957c.307,0,.478.136.478.375,0,.273-.171.375-.478.375h-3.991Z" transform="translate(-294.109 -211.998)"/>
      <path id="Path_277" data-name="Path 277" d="M337.332,215.621v2.524q0,.409-.512.409t-.512-.409v-2.524l-3.138-3.036a.42.42,0,0,1-.171-.341c0-.273.2-.409.546-.409a.55.55,0,0,1,.443.2l2.831,2.8L339.652,212a.55.55,0,0,1,.443-.2c.307,0,.512.136.512.409a.474.474,0,0,1-.171.341Z" transform="translate(-312.294 -211.8)"/>
      <path id="Path_278" data-name="Path 278" d="M369.57,212.95h-2.592c-.307,0-.478-.136-.478-.375,0-.273.171-.375.478-.375h6.242c.341,0,.478.136.478.375,0,.273-.171.409-.478.409h-2.592v5.458q0,.409-.512.409t-.512-.409V212.95Z" transform="translate(-334.367 -212.064)"/>
      <path id="Path_279" data-name="Path 279" d="M403.032,215.621v2.524q0,.409-.512.409t-.512-.409v-2.524l-3.138-3.036a.42.42,0,0,1-.171-.341c0-.273.2-.409.546-.409a.55.55,0,0,1,.443.2l2.831,2.8L405.352,212a.55.55,0,0,1,.443-.2c.307,0,.512.136.512.409a.474.474,0,0,1-.171.341Z" transform="translate(-355.583 -211.8)"/>
      <path id="Path_280" data-name="Path 280" d="M455.908,212.241l2.251,4.878,1.91-4.912a.473.473,0,0,1,.512-.307c.307,0,.512.136.512.409a.516.516,0,0,1-.068.273l-2.251,5.628c-.136.273-.239.375-.546.375a.541.541,0,0,1-.58-.375l-2.251-4.844-2.251,4.844a.541.541,0,0,1-.58.375.493.493,0,0,1-.546-.375l-2.251-5.628a.516.516,0,0,1-.068-.273c0-.273.2-.409.512-.409a.473.473,0,0,1,.512.307l1.876,4.912,2.251-4.878a.54.54,0,0,1,.546-.341A.576.576,0,0,1,455.908,212.241Z" transform="translate(-389.186 -211.866)"/>
      <path id="Path_281" data-name="Path 281" d="M496.122,216.812h-4.81l-.989,1.535a.566.566,0,0,1-.512.273c-.307,0-.512-.136-.512-.375a.647.647,0,0,1,.1-.307l3.786-5.765a.7.7,0,0,1,.512-.273.648.648,0,0,1,.512.273L498,217.938a.475.475,0,0,1,.136.307c0,.239-.2.375-.512.375a.544.544,0,0,1-.478-.273Zm-4.332-.75h3.889l-1.944-3Z" transform="translate(-415.277 -211.866)"/>
      <path id="Path_282" data-name="Path 282" d="M528.123,216.125v2.251q0,.409-.512.409t-.512-.409v-5.935c0-.2.136-.341.443-.341h4.5q2.968,0,2.968,1.637v.716c0,1.057-.989,1.6-2.968,1.6h-2.285L534.2,218c.2.1.273.2.273.375,0,.239-.2.409-.512.409a.889.889,0,0,1-.375-.1Zm0-.819h3.923c1.3,0,1.91-.273,1.91-.853v-.682c0-.58-.614-.853-1.91-.853h-3.855a.073.073,0,0,0-.068.068Z" transform="translate(-440.183 -211.998)"/>
      <path id="Path_283" data-name="Path 283" d="M569.366,217.314c0,1.023-.989,1.535-2.9,1.535h-3.889c-.307,0-.478-.136-.478-.375,0-.273.171-.375.478-.375h3.889c1.228,0,1.876-.273,1.876-.785v-.682c0-.512-.58-.785-1.774-.785h-1.808c-1.74,0-2.592-.478-2.592-1.4v-.682c0-.989.887-1.467,2.661-1.467h1.057c.307,0,.477.136.477.375,0,.273-.171.375-.477.375h-1.057q-1.637,0-1.637.716v.58c0,.478.512.716,1.569.716h1.74c1.91,0,2.9.512,2.9,1.5v.75Z" transform="translate(-463.244 -212.129)"/>
      <path id="Path_284" data-name="Path 284" d="M591.17,212.95h-2.592c-.307,0-.478-.136-.478-.375,0-.273.171-.375.478-.375h6.242c.341,0,.478.136.478.375,0,.273-.171.409-.478.409h-2.592v5.458q0,.409-.512.409t-.512-.409V212.95Z" transform="translate(-480.375 -212.064)"/>
      <path id="Path_285" data-name="Path 285" d="M626.409,212.241l2.251,4.878,1.91-4.912a.473.473,0,0,1,.512-.307c.307,0,.512.136.512.409a.516.516,0,0,1-.068.273l-2.251,5.628c-.136.273-.239.375-.546.375a.541.541,0,0,1-.58-.375l-2.251-4.844-2.251,4.844a.541.541,0,0,1-.58.375.493.493,0,0,1-.546-.375l-2.251-5.628a.515.515,0,0,1-.068-.273c0-.273.2-.409.512-.409a.473.473,0,0,1,.512.307l1.876,4.912,2.251-4.878a.54.54,0,0,1,.546-.341A.576.576,0,0,1,626.409,212.241Z" transform="translate(-501.525 -211.866)"/>
      <path id="Path_286" data-name="Path 286" d="M667.2,218.718c-1.876,0-2.8-.614-2.8-1.842v-2.968c0-1.228.921-1.808,2.763-1.808h2.115c1.842,0,2.763.614,2.763,1.808v2.968c0,1.228-.921,1.842-2.8,1.842Zm3.786-4.776c0-.716-.58-1.057-1.74-1.057h-2.081c-1.16,0-1.74.341-1.74,1.057v2.9c0,.716.58,1.092,1.774,1.092h2.047c1.16,0,1.774-.375,1.774-1.092v-2.9Z" transform="translate(-530.648 -211.998)"/>
      <path id="Path_287" data-name="Path 287" d="M703.908,212.241l2.251,4.878,1.91-4.912a.473.473,0,0,1,.512-.307c.307,0,.512.136.512.409a.516.516,0,0,1-.068.273l-2.251,5.628c-.136.273-.239.375-.546.375a.541.541,0,0,1-.58-.375l-2.251-4.844-2.251,4.844a.541.541,0,0,1-.58.375.493.493,0,0,1-.546-.375l-2.251-5.628a.516.516,0,0,1-.068-.273c0-.273.2-.409.512-.409a.473.473,0,0,1,.512.307l1.876,4.912,2.251-4.878a.54.54,0,0,1,.546-.341A.576.576,0,0,1,703.908,212.241Z" transform="translate(-552.589 -211.866)"/>
      <path id="Path_288" data-name="Path 288" d="M744.8,218.718c-1.876,0-2.8-.614-2.8-1.842v-2.968c0-1.194.921-1.808,2.763-1.808h1.365c.307,0,.478.136.478.375,0,.273-.171.375-.478.375H744.8c-1.16,0-1.74.341-1.74,1.057V215h5.7c.307,0,.443.136.443.375s-.136.375-.443.375h-5.731v1.092c0,.716.58,1.092,1.808,1.092h3.889c.341,0,.478.136.478.375,0,.273-.171.375-.478.375H744.8Z" transform="translate(-581.777 -211.998)"/>
    </g>
  </g>
  <rect id="Rectangle_28" data-name="Rectangle 28" width="250" height="125" fill="none"/>
</svg>
